<svg xmlns="http://www.w3.org/2000/svg" xml:space="preserve" fill-rule="evenodd" stroke-linejoin="round"
    stroke-miterlimit="2" clip-rule="evenodd" viewBox="0 0 1000 1000">
    <path fill-rule="nonzero"
        d="M357.14 285.71h535.72c58.78 0 107.14-48.35 107.14-107.14v-71.43C1000 48.36 951.64 0 892.86 0H357.14v285.71ZM285.71 0H107.14C48.36 0 0 48.36 0 107.14v71.43c0 58.79 48.36 107.14 107.14 107.14h178.57V0ZM500 642.86h392.86c58.78 0 107.14-48.36 107.14-107.15V464.3c0-58.79-48.36-107.15-107.14-107.15H500v285.72Zm-71.43-285.72H250c-58.79 0-107.14 48.36-107.14 107.15v71.42c0 58.79 48.35 107.15 107.14 107.15h178.57V357.14ZM892.86 1000H500V714.29h392.86c58.78 0 107.14 48.35 107.14 107.14v71.43c0 58.78-48.36 107.14-107.14 107.14ZM250 714.29h178.57V1000H250c-58.79 0-107.14-48.36-107.14-107.14v-71.43c0-58.79 48.35-107.14 107.14-107.14Z" />
<style>
    path {
        fill: darkslategray
    }

    @media (prefers-color-scheme:dark) {
        path {
            fill: lightgray
        }
    }
</style>
</svg>
