<svg xmlns="http://www.w3.org/2000/svg" xml:space="preserve" fill-rule="evenodd" stroke-linejoin="round"
  stroke-miterlimit="2" clip-rule="evenodd" viewBox="0 -20 780 134">
  <path fill="var(--sl-color-white, currentColor)"
    d="M132.8 69.8c5.2 13.7 18.3 21.6 37 21.6 17.6 0 36-10 36-28.2 0-17.7-16.9-22-30.7-24.9L163.6 36c-5.9-1.1-9.7-4.3-9.7-8.7 0-5.2 5.9-8.2 13.7-8.2 8 0 14 3.2 16.2 9l18.3-6.7C196.8 8.2 183.1 3 169.4 3c-17.2-.1-36.4 8-36.4 26.4 0 14.6 12 21.3 26 24l10.4 2c9.2 1.9 15.6 4.8 15.6 10.8 0 6.7-8 9-15.2 9-9.5 0-16.4-3.9-18.7-12l-18.4 6.6Zm77.6-28.5H221V72c0 15 5.4 18 21 18h12.3V74h-5.6c-6.3 0-8.2-1.1-8.2-7.1V41.3h13.8V26.4h-13.8V10.5H221v16h-10.5v14.8ZM283.2 90V58c0-10.2 5-14.3 14.5-14.3 1.8 0 3.2.1 5.3.4V24.6c-9.7-.5-16.5 3.2-20.5 13.5l-3.4-11.7h-15.4V90h19.5Zm28.1-63.6v38.2c0 17.2 5.1 26.8 22 26.8 9.8 0 14.7-4.2 18.5-10.5l2.6 9h17V26.4h-19.6v33.4c0 11.8-3.1 16.5-11.3 16.5-9.5 0-9.7-7.5-9.7-16.6V26.4h-19.5Zm102.2 65c10 0 21.8-3.8 28.4-15.3L426 70.3c-2.2 3.7-6 6-11.4 6-6.9 0-13.8-4.6-13.8-18.4 0-13.4 6.8-18.2 13.8-18.2 4.9 0 9.2 2 11.3 7.5l16.2-6c-5.9-12.5-17.8-16.6-28.6-16.6-19.4 0-32.6 13.2-32.6 33.2 0 20 11.6 33.6 32.6 33.6Zm32.6-50.1h10.5V72c0 15 5.4 18 21 18h12.3V74h-5.7c-6.2 0-8.2-1-8.2-7V41.3h14V26.4h-14V10.5h-19.4v16H446v14.8ZM496 57.8c0 21 14.2 33.6 34.8 33.6a33 33 0 0 0 27.8-14.2l-15.5-5.6c-2.4 2.8-6.8 4.7-12.8 4.7-7.1 0-14-4.3-14.7-13.3h47c1.3-22.4-11.7-38.4-32.5-38.4-18.6 0-34 13-34 33.2ZM530.6 39c7.5 0 13.7 4.2 14 12.4h-29c1.2-8.7 7.7-12.4 15-12.4Zm37.9 18.8c0 21 14.2 33.6 34.8 33.6 10.3 0 21.1-4.4 27.8-14.2l-15.5-5.6c-2.5 2.8-6.8 4.7-12.8 4.7-7.2 0-14.1-4.3-14.8-13.3h47c1.3-22.4-11.6-38.4-32.5-38.4-18.5 0-34 13-34 33.2ZM603 39c7.6 0 13.7 4.2 14 12.4h-29c1.2-8.7 7.7-12.4 15-12.4Zm63.8 35.4L699.5 42V26.4h-56V42h31l-32.8 32.5V90h59.6V74.4h-34.5Zm37.1-48 24.3 63.1-.6 1.7c-2 4.9-3.4 5.2-11.6 5.2h-3.8v14.1h6.3c16.5 0 21.2-4.5 27.4-20.6l24.3-63.5h-20.9l-12.1 39.7-12.4-39.7h-21Z" />
  <path fill="var(--_accent-fill, currentColor)" fill-rule="nonzero"
    d="M35.7 28.6h53.6c5.9 0 10.7-4.9 10.7-10.7v-7.2C100 4.8 95.2 0 89.3 0H35.7v28.6ZM28.6 0H10.7C4.8 0 0 4.8 0 10.7V18c0 5.8 4.8 10.7 10.7 10.7h17.9V0ZM50 64.3h39.3c5.9 0 10.7-4.8 10.7-10.7v-7.2c0-5.9-4.8-10.7-10.7-10.7H50v28.6Zm-7.1-28.6H25c-5.9 0-10.7 4.8-10.7 10.7v7.2c0 5.9 4.8 10.7 10.7 10.7h17.9V35.7ZM89.3 100H50V71.4h39.3c5.9 0 10.7 4.9 10.7 10.7v7.2c0 5.9-4.8 10.7-10.7 10.7ZM25 71.4h17.9V100H25c-5.9 0-10.7-4.8-10.7-10.7V82c0-5.8 4.8-10.7 10.7-10.7Z" />
</svg>